<?xml version="1.0" standalone="no"?>
<svg xmlns:xlink="http://www.w3.org/1999/xlink" id="wave" style="transform:rotate(0deg); transition: 0.3s" viewBox="0 0 1440 490" version="1.1" xmlns="http://www.w3.org/2000/svg"><defs><linearGradient id="sw-gradient-0" x1="0" x2="0" y1="1" y2="0"><stop stop-color="rgba(0, 0, 0, 1)" offset="0%"/><stop stop-color="rgba(0, 0, 0, 1)" offset="100%"/></linearGradient></defs><path style="transform:translate(0, 0px); opacity:1" fill="url(#sw-gradient-0)" d="M0,196L120,171.5C240,147,480,98,720,130.7C960,163,1200,278,1440,294C1680,310,1920,229,2160,163.3C2400,98,2640,49,2880,57.2C3120,65,3360,131,3600,196C3840,261,4080,327,4320,359.3C4560,392,4800,392,5040,351.2C5280,310,5520,229,5760,171.5C6000,114,6240,82,6480,114.3C6720,147,6960,245,7200,310.3C7440,376,7680,408,7920,359.3C8160,310,8400,180,8640,155.2C8880,131,9120,212,9360,245C9600,278,9840,261,10080,253.2C10320,245,10560,245,10800,220.5C11040,196,11280,147,11520,171.5C11760,196,12000,294,12240,285.8C12480,278,12720,163,12960,138.8C13200,114,13440,180,13680,171.5C13920,163,14160,82,14400,65.3C14640,49,14880,98,15120,130.7C15360,163,15600,180,15840,196C16080,212,16320,229,16560,196C16800,163,17040,82,17160,40.8L17280,0L17280,490L17160,490C17040,490,16800,490,16560,490C16320,490,16080,490,15840,490C15600,490,15360,490,15120,490C14880,490,14640,490,14400,490C14160,490,13920,490,13680,490C13440,490,13200,490,12960,490C12720,490,12480,490,12240,490C12000,490,11760,490,11520,490C11280,490,11040,490,10800,490C10560,490,10320,490,10080,490C9840,490,9600,490,9360,490C9120,490,8880,490,8640,490C8400,490,8160,490,7920,490C7680,490,7440,490,7200,490C6960,490,6720,490,6480,490C6240,490,6000,490,5760,490C5520,490,5280,490,5040,490C4800,490,4560,490,4320,490C4080,490,3840,490,3600,490C3360,490,3120,490,2880,490C2640,490,2400,490,2160,490C1920,490,1680,490,1440,490C1200,490,960,490,720,490C480,490,240,490,120,490L0,490Z"/></svg>